<?xml version="1.0" encoding="UTF-8"?>
<svg width="32px" height="44px" viewBox="0 0 32 44" version="1.1" xmlns="http://www.w3.org/2000/svg" xmlns:xlink="http://www.w3.org/1999/xlink">
    <g id="Page-1" stroke="none" stroke-width="1" fill="none" fill-rule="evenodd">
        <g id="narrative-logo" fill-rule="nonzero">
            <path d="M30.6644898,2.22325926 L24.0840816,2.22325926 C24.0367347,2.22325926 23.9902041,2.22692593 23.9444898,2.23262963 L23.9444898,2.97288889 L31.8012245,40.6271111 L31.8012245,3.3582963 C31.8012245,2.7312963 31.2922449,2.22325926 30.6644898,2.22325926" id="Fill-12" fill="#C44949"/>
            <path d="M30.6644898,41.8081852 C31.0032653,41.8081852 31.3069388,41.6594815 31.515102,41.4244074 C31.2942857,41.6619259 30.9681633,41.8081852 30.6191837,41.8081852 L30.6644898,41.8081852" id="Fill-13" fill="#B34D4C"/>
            <path d="M23.9444898,41.811037 C23.9591837,41.8094074 23.9738776,41.8081852 23.9865306,41.8081852 L30.6191837,41.8081852 C30.9681633,41.8081852 31.2942857,41.6619259 31.515102,41.4244074 C31.5204082,41.4187037 31.5257143,41.413 31.5310204,41.4068889 C31.5379592,41.3991481 31.5444898,41.3901852 31.5514286,41.382037 C31.7061224,41.1982963 31.8012245,40.9672963 31.8012245,40.7085926 L31.8012245,40.6271111 L23.9444898,2.97288889 L23.9444898,41.811037" id="Fill-14" fill="#A53232"/>
            <path d="M23.9444898,2.23262963 L23.9444898,1.24222222 C23.9444898,0.615222222 23.4130612,0.107185185 22.784898,0.107185185 L1.15959184,2.18781481 C0.535918367,2.231 0,2.69585185 0,3.32285185 L0,40.5843333 C0,41.2109259 0.549387755,41.6480741 1.16530612,41.7193704 L22.7963265,43.8 C23.4240816,43.8 23.9444898,43.2915556 23.9444898,42.664963 L23.9444898,2.23262963" id="Fill-16" fill="#E26060"/>
        </g>
    </g>
</svg>